<?xml version="1.0" encoding="UTF-8"?>
<svg width="1200pt" height="1200pt" version="1.1" viewBox="0 0 1200 1200" xmlns="http://www.w3.org/2000/svg">
 <path d="m600 630.84h-2.5312c-81.938-3-146.63-70.734-145.78-152.76v-111.7c0-3.4688 1.5-6.75 4.0781-9 27.422-24.281 50.906-52.594 69.703-84 1.8281-2.9531 4.7812-4.9688 8.1562-5.5312 3.375-0.65625 6.8906 0.1875 9.6094 2.2969 55.734 43.312 123.32 68.766 193.82 72.938 6.3281 0.375 11.25 5.625 11.25 12v127.31c0.046875 39.375-15.562 77.109-43.406 104.95-27.797 27.844-65.531 43.5-104.91 43.5zm-124.31-258.84v106.31c-0.84375 68.859 53.344 125.86 122.16 128.53 33.328 0.51562 65.484-12.375 89.297-35.766 23.766-23.391 37.172-55.312 37.172-88.688v-116.39c-66.844-5.9531-130.87-29.812-185.26-69.141-17.812 27.703-39.141 52.922-63.375 75.141z"/>
 <path d="m415.22 426.47c-3.0469 0-5.9531-1.1719-8.1562-3.2344-3.2344-2.9531-6.0469-6.2812-8.4375-9.9375-7.4531-11.203-11.391-24.375-11.391-37.828v-73.688c0-54 20.578-105.98 57.516-145.4 36.984-39.375 87.562-63.281 141.47-66.75 25.875-1.7344 51.891 1.5938 76.547 9.75 44.109 14.766 82.406 43.172 109.36 81.094 26.906 37.922 41.109 83.438 40.5 129.98v65.062-0.046875c0 17.484-6.7031 34.266-18.703 46.922-4.6875 4.6406-12.234 4.6406-16.922 0-2.25-2.25-3.5625-5.2969-3.5625-8.5312 0-3.1875 1.3125-6.2344 3.5625-8.4844 7.7344-8.25 12-19.078 12-30.375v-64.547c0.60938-41.484-11.953-82.031-35.906-115.88s-57.984-59.203-97.312-72.422c-21.797-7.2188-44.812-10.172-67.781-8.625-47.859 3.0938-92.719 24.281-125.53 59.25-32.859 34.922-51.141 81.047-51.234 129v73.688c0.046875 8.5312 2.5781 16.875 7.3125 24 1.4062 2.1094 3.0938 4.0312 4.9219 5.7656 4.6406 4.6875 4.6406 12.234 0 16.922-2.0625 2.4844-5.0156 4.0781-8.25 4.3125z"/>
 <path d="m736.31 444c-6.6094 0-12-5.3906-12-12v-66c-71.484-6.1875-139.69-32.953-196.31-77.062-5.2031-4.0312-6.1875-11.531-2.1562-16.781 1.9219-2.5312 4.8281-4.2188 8.0156-4.5938 3.1875-0.42188 6.375 0.46875 8.9062 2.4375 55.734 43.312 123.32 68.766 193.78 72.938 6.375 0.42188 11.297 5.6719 11.297 12v77.062c0 6.4219-5.0625 11.766-11.531 12z"/>
 <path d="m463.69 444c-6.6562 0-12-5.3906-12-12v-65.625c0-3.4688 1.5-6.75 4.0781-9 24.797-21.938 46.406-47.25 64.172-75.141-9.3281-7.5469-18.328-15.562-26.859-24-2.25-2.25-3.5625-5.2969-3.5625-8.5312 0-3.1875 1.3125-6.2344 3.5625-8.4844 4.6875-4.6875 12.234-4.6875 16.922 0 10.406 10.359 21.469 20.062 33.141 29.016 4.7812 3.7031 6.0469 10.406 3 15.609-19.172 31.969-42.938 61.031-70.453 86.156v60c0 3.1875-1.2656 6.2344-3.5156 8.4844s-5.2969 3.5156-8.4844 3.5156z"/>
 <path d="m748.69 518.86h-12c-6.6562 0-12-5.3438-12-12v-105.33c0-6.6562 5.3438-12 12-12h31.312c19.406 0.046875 35.109 15.75 35.156 35.156v40.219-0.046875c-0.046875 14.438-5.8125 28.219-16.031 38.344s-24.047 15.75-38.438 15.656zm0-24c7.9688 0 15.562-3.1406 21.188-8.7656s8.8125-13.266 8.8125-21.234v-40.172c0-6.1875-5.0156-11.156-11.156-11.156h-19.219z"/>
 <path d="m464.16 518.86h-12c-29.766-0.046875-53.859-24.188-53.859-54v-40.172c0-19.359 15.656-35.109 35.016-35.156h31.219c3.1875 0 6.2344 1.2656 8.4844 3.5156s3.5156 5.2969 3.5156 8.4844v105.38-0.046875c0 3.2812-1.3125 6.375-3.6562 8.625s-5.4844 3.5156-8.7188 3.375zm-31.219-105.38v0.046875c-6.0938 0.046875-11.016 5.0156-11.016 11.156v40.219-0.046875c0 16.547 13.359 29.953 29.859 30v-81.328z"/>
 <path d="m521.86 768c-6.9375 0-13.688-2.25-19.312-6.375-8.5781-6.2344-13.688-16.219-13.688-26.859v-36c0-10.594 5.0156-20.531 13.5-26.766 8.5312-6.2812 19.5-8.1094 29.578-4.9219l41.156 12.938 0.046875 0.046875c3.2812 0.70312 6.0938 2.7656 7.7812 5.7188 1.6875 2.9062 2.0625 6.375 1.0312 9.5625-1.0312 3.2344-3.3281 5.8594-6.375 7.2656-3.0469 1.4531-6.5625 1.5-9.6562 0.23438l-41.156-12.844c-2.7188-0.9375-5.7656-0.46875-8.0625 1.3125-2.3906 1.6875-3.8438 4.5-3.8438 7.4531v36c0 2.9531 1.4531 5.7188 3.8438 7.4531 2.2969 1.7344 5.3438 2.25 8.0625 1.3125l41.156-12.844c6.0938-1.3594 12.188 2.1562 14.062 8.1094 1.875 5.9062-1.125 12.281-6.8438 14.672l-41.156 12.938-0.046875 0.046875c-3.2344 1.0312-6.6562 1.5469-10.078 1.5469z"/>
 <path d="m678.14 768c-3.4219-0.046875-6.8438-0.5625-10.078-1.5469l-41.156-12.938-0.046875-0.046875c-5.7188-2.3906-8.7188-8.7656-6.8438-14.672 1.875-5.9531 7.9688-9.4688 14.062-8.1094l41.156 13.312c2.7188 0.9375 5.7656 0.46875 8.0625-1.3125 2.3906-1.6875 3.8438-4.5 3.8438-7.4531v-36c0-2.9531-1.4531-5.7188-3.8438-7.4531-2.2969-1.7344-5.3438-2.25-8.0625-1.3125l-41.156 12.75c-3.0938 1.2656-6.6094 1.1719-9.6562-0.23438s-5.3438-4.0312-6.375-7.2656c-1.0312-3.1875-0.65625-6.7031 1.0312-9.6094s4.5-4.9688 7.7812-5.7188l41.156-12.938h0.046875c9.9844-3.2344 20.906-1.4531 29.391 4.7812 8.625 6.2344 13.688 16.266 13.688 26.906v36c0 10.594-5.1094 20.625-13.688 26.859-5.6719 3.9844-12.422 6.0938-19.312 6z"/>
 <path d="m616.78 761.86h-33.562c-9.8906 0.046875-18.984-5.1562-24-13.641-2.7188-4.3125-4.1719-9.3281-4.0781-14.438v-33.844c-0.046875-5.25 1.5-10.453 4.4062-14.859 5.1562-8.2969 14.25-13.266 24-13.078h33.609c9.8438 0 18.984 5.2031 24 13.688 2.7188 4.2656 4.125 9.2344 4.0781 14.25v33.844c0.046875 5.2969-1.5 10.5-4.4531 14.906-5.0625 8.3906-14.203 13.406-24 13.172zm-33.562-65.859c-1.4062-0.046875-2.7188 0.70312-3.375 1.9219-0.46875 0.5625-0.70312 1.3125-0.70312 2.0156v33.844c-0.14062 0.5625-0.14062 1.125 0 1.6875 0.65625 1.4531 2.1094 2.3906 3.7031 2.3906h33.609c1.3594 0.046875 2.6719-0.70312 3.3281-1.9219 0.46875-0.60938 0.75-1.3594 0.75-2.1562v-33.844c0.09375-0.46875 0.09375-1.0312 0-1.5469-0.70312-1.4531-2.1562-2.3438-3.75-2.3906z"/>
 <path d="m536.76 693.61c-6.6562 0-12-5.3906-12-12v-78.234c0-6.6562 5.3438-12 12-12 6.6094 0 12 5.3438 12 12v78.234c0 3.1875-1.2656 6.2344-3.5156 8.4844s-5.2969 3.5156-8.4844 3.5156z"/>
 <path d="m651.47 1110.8h-339.47c-28.359 0-51.375-23.016-51.375-51.375v-240.84c0-2.1562 0.5625-4.3594 1.6875-6.2344 13.031-22.359 30.75-41.578 51.984-56.391l4.6875-3.1406 2.7656-1.7812h-0.046875c24.375-13.172 50.906-21.797 78.375-25.453l22.078-4.6875c10.312-2.1562 21.844-4.5469 34.547-7.7812s27.234-7.0781 40.688-11.156c6.4219-1.8281 13.125 1.9219 14.953 8.3438s-1.9219 13.125-8.3438 14.953c-13.781 4.2188-27.938 8.1562-41.859 12s-24.703 5.8594-35.297 8.0625l-22.312 4.6875v-0.046875c-24.562 3.1406-48.375 10.688-70.312 22.219l-2.5312 1.6875-4.2188 2.7656v-0.046875c-17.391 12.141-32.062 27.75-43.078 45.844v237c0 7.3125 2.9062 14.297 8.1094 19.453 5.2031 5.1094 12.188 7.9688 19.5 7.9219h339.47c6.6562 0 12 5.3906 12 12s-5.3438 12-12 12z"/>
 <path d="m376.45 1110.8c-6.6562 0-12-5.3906-12-12v-260.39l-46.078-70.453c-3.6094-5.4844-2.1094-12.891 3.3281-16.547 2.6719-1.7812 5.9531-2.3906 9.0938-1.7344s5.8594 2.5312 7.5938 5.2031l48 73.312c1.2188 2.0156 1.875 4.2656 1.9219 6.6094v264c0 6.5625-5.2969 11.953-11.859 12z"/>
 <path d="m600 946.22c-3.4688 0-6.7031-1.5-9-4.0781l-175.31-201.14c-4.0312-5.0156-3.4219-12.281 1.4062-16.547 4.8281-4.2188 12.141-3.9375 16.594 0.70312l175.45 201.14c3.0938 3.5156 3.8438 8.5781 1.875 12.891s-6.2812 7.0312-11.016 7.0312z"/>
 <path d="m663.24 693.61c-6.6094 0-12-5.3906-12-12v-78.234c0-6.6562 5.3906-12 12-12 6.6562 0 12 5.3438 12 12v78.234c0 3.1875-1.2656 6.2344-3.5156 8.4844s-5.2969 3.5156-8.4844 3.5156z"/>
 <path d="m888 1110.8h-339.47c-6.6562 0-12-5.3906-12-12s5.3438-12 12-12h339.47c15.094 0 27.375-12.234 27.375-27.375v-237.47c-11.016-18.094-25.688-33.75-43.078-45.844l-4.2188-2.7656-3-1.9219c-21.797-11.391-45.422-18.844-69.844-21.938l-22.312-4.6875c-9.1406-1.9219-21.375-4.5469-36-8.0625-14.625-3.4688-27.938-7.3125-41.766-12-3.2344-0.75-6-2.8125-7.6406-5.6719s-2.0156-6.2812-1.0781-9.4688c0.98438-3.1875 3.1875-5.8125 6.1875-7.2656 2.9531-1.4531 6.375-1.6406 9.5156-0.51562 13.453 4.0781 27.141 7.7812 40.688 11.156s25.547 6 34.453 7.7812l22.219 4.6875-0.046875 0.046875c27.281 3.6094 53.625 12.141 77.859 25.172l3.2344 2.0625 4.6875 3.1406v-0.046875c21.141 14.719 38.812 33.844 51.844 56.062 1.125 1.875 1.6875 4.0312 1.6875 6.2344v241.31c0 28.125-22.641 51.047-50.766 51.375z"/>
 <path d="m823.55 1110.8c-6.6094 0-12-5.3906-12-12v-264c0.046875-2.3438 0.70312-4.5938 1.9219-6.6094l48-73.312c1.7344-2.6719 4.5-4.5469 7.6406-5.2031s6.375-0.046875 9.0469 1.7344c5.5312 3.6094 7.0781 11.016 3.4688 16.547l-46.078 70.453v260.39c0 6.6094-5.3438 12-12 12z"/>
 <path d="m600 946.22c-4.6875-0.046875-9-2.7656-10.922-7.0781s-1.1719-9.3281 1.9219-12.844l175.22-201.14c4.4531-4.6406 11.719-4.9219 16.547-0.70312 4.8281 4.2656 5.4844 11.531 1.4531 16.547l-175.08 201.14c-2.3438 2.5781-5.6719 4.0781-9.1406 4.0781z"/>
</svg>
